<?xml version="1.0" standalone="no"?>
<!DOCTYPE svg PUBLIC "-//W3C//DTD SVG 20010904//EN"
 "http://www.w3.org/TR/2001/REC-SVG-20010904/DTD/svg10.dtd">
<svg version="1.0" xmlns="http://www.w3.org/2000/svg"
 width="400.000000pt" height="400.000000pt" viewBox="0 0 400.000000 400.000000"
 preserveAspectRatio="xMidYMid meet">

<g transform="translate(0.000000,400.000000) scale(0.100000,-0.100000)"
fill="#000000" stroke="none">
<path d="M1005 2973 c-192 -38 -326 -70 -335 -79 -13 -13 -15 -130 -16 -922
-1 -499 0 -926 3 -949 2 -23 10 -43 16 -46 7 -3 121 21 252 53 132 32 286 68
342 80 56 13 107 26 115 31 10 6 13 39 13 131 0 332 -17 1735 -21 1751 -3 10
-14 17 -27 16 -12 -1 -166 -30 -342 -66z"/>
<path d="M1618 2943 c-1 -54 -1 -120 -1 -148 0 -27 1 -413 2 -858 l1 -807 33
-15 c17 -8 111 -31 207 -50 170 -33 382 -78 434 -91 21 -5 27 -2 35 17 10 25
33 1843 24 1867 -3 7 -17 18 -32 24 -40 15 -652 158 -678 158 -22 0 -23 -3
-25 -97z"/>
<path d="M2955 2949 c-187 -38 -346 -71 -352 -74 -10 -3 -13 -206 -13 -965 0
-870 1 -960 16 -960 9 0 100 20 202 45 103 24 257 60 342 80 85 19 161 42 169
50 13 12 13 137 3 947 -7 513 -16 935 -20 939 -4 4 -160 -24 -347 -62z"/>
</g>
</svg>
